<?xml version="1.0" encoding="utf-8"?>
<svg viewBox="172.358 124.657 60.138 36.417" xmlns="http://www.w3.org/2000/svg">
  <path d="M 187.338 147.435 L 187.338 148.425 L 185.738 148.425 L 185.738 154.965 C 185.738 155.972 185.568 156.852 185.228 157.605 C 184.888 158.358 184.411 158.985 183.798 159.485 C 183.185 159.985 182.458 160.362 181.618 160.615 C 180.778 160.862 179.865 160.985 178.878 160.985 C 178.505 160.985 178.141 160.955 177.788 160.895 C 177.441 160.828 177.135 160.738 176.868 160.625 C 176.601 160.518 176.388 160.388 176.228 160.235 C 176.068 160.082 175.988 159.912 175.988 159.725 C 175.988 159.592 176.005 159.458 176.038 159.325 C 176.078 159.185 176.135 159.058 176.208 158.945 C 176.281 158.838 176.371 158.748 176.478 158.675 C 176.591 158.602 176.715 158.565 176.848 158.565 C 176.935 158.565 177.008 158.608 177.068 158.695 C 177.128 158.775 177.191 158.875 177.258 158.995 C 177.325 159.115 177.401 159.245 177.488 159.385 C 177.581 159.532 177.695 159.665 177.828 159.785 C 177.961 159.905 178.125 160.005 178.318 160.085 C 178.511 160.165 178.751 160.205 179.038 160.205 C 179.611 160.205 180.115 160.102 180.548 159.895 C 180.988 159.688 181.355 159.398 181.648 159.025 C 181.941 158.645 182.165 158.195 182.318 157.675 C 182.471 157.148 182.548 156.572 182.548 155.945 L 182.548 155.265 C 182.235 155.332 181.921 155.382 181.608 155.415 C 181.288 155.448 180.931 155.465 180.538 155.465 C 179.531 155.465 178.585 155.312 177.698 155.005 C 176.818 154.692 176.048 154.215 175.388 153.575 C 174.735 152.928 174.218 152.102 173.838 151.095 C 173.458 150.095 173.268 148.902 173.268 147.515 C 173.268 146.548 173.371 145.658 173.578 144.845 C 173.791 144.025 174.081 143.288 174.448 142.635 C 174.821 141.975 175.261 141.398 175.768 140.905 C 176.275 140.405 176.828 139.988 177.428 139.655 C 178.028 139.322 178.658 139.068 179.318 138.895 C 179.985 138.728 180.658 138.645 181.338 138.645 C 181.985 138.645 182.588 138.705 183.148 138.825 C 183.701 138.945 184.185 139.122 184.598 139.355 C 185.011 139.595 185.335 139.885 185.568 140.225 C 185.808 140.572 185.928 140.965 185.928 141.405 C 185.928 141.605 185.895 141.815 185.828 142.035 C 185.755 142.248 185.651 142.448 185.518 142.635 C 185.385 142.815 185.215 142.962 185.008 143.075 C 184.808 143.195 184.575 143.255 184.308 143.255 C 183.988 143.255 183.751 143.162 183.598 142.975 C 183.445 142.795 183.328 142.572 183.248 142.305 C 183.175 142.038 183.118 141.745 183.078 141.425 C 183.045 141.105 182.981 140.812 182.888 140.545 C 182.801 140.278 182.668 140.055 182.488 139.875 C 182.301 139.688 182.035 139.595 181.688 139.595 C 181.428 139.595 181.135 139.658 180.808 139.785 C 180.481 139.912 180.151 140.112 179.818 140.385 C 179.485 140.658 179.155 141.002 178.828 141.415 C 178.508 141.835 178.225 142.338 177.978 142.925 C 177.725 143.512 177.525 144.185 177.378 144.945 C 177.225 145.705 177.148 146.562 177.148 147.515 C 177.148 148.568 177.215 149.468 177.348 150.215 C 177.481 150.962 177.658 151.585 177.878 152.085 C 178.091 152.585 178.341 152.982 178.628 153.275 C 178.915 153.568 179.211 153.788 179.518 153.935 C 179.818 154.088 180.121 154.185 180.428 154.225 C 180.728 154.265 181.005 154.285 181.258 154.285 C 181.511 154.285 181.748 154.265 181.968 154.225 C 182.181 154.185 182.375 154.125 182.548 154.045 L 182.548 148.425 L 180.588 148.425 L 180.588 147.435 L 187.338 147.435 Z" transform="matrix(1, 0, 0, 1, 0, 0)" style="fill: rgb(6, 23, 119); white-space: pre;"/>
  <path d="M 196.192 149.011 C 195.092 149.011 194.082 148.808 193.162 148.401 C 192.249 147.994 191.455 147.421 190.782 146.681 C 190.115 145.934 189.602 145.064 189.242 144.071 C 188.882 143.071 188.702 141.981 188.702 140.801 L 188.702 140.541 C 188.702 139.368 188.882 138.284 189.242 137.291 C 189.602 136.298 190.115 135.431 190.782 134.691 C 191.449 133.944 192.239 133.364 193.152 132.951 C 194.065 132.544 195.075 132.341 196.182 132.341 C 197.282 132.341 198.292 132.544 199.212 132.951 C 200.132 133.364 200.935 133.944 201.622 134.691 C 202.302 135.431 202.829 136.298 203.202 137.291 C 203.569 138.284 203.752 139.368 203.752 140.541 L 203.752 140.801 C 203.752 141.981 203.569 143.071 203.202 144.071 C 202.829 145.064 202.302 145.934 201.622 146.681 C 200.942 147.421 200.142 147.994 199.222 148.401 C 198.302 148.808 197.292 149.011 196.192 149.011 Z M 196.192 146.291 C 197.065 146.291 197.799 146.061 198.392 145.601 C 198.992 145.141 199.445 144.501 199.752 143.681 C 200.052 142.861 200.202 141.901 200.202 140.801 L 200.202 140.521 C 200.202 139.448 200.049 138.501 199.742 137.681 C 199.435 136.868 198.982 136.231 198.382 135.771 C 197.789 135.311 197.055 135.081 196.182 135.081 C 195.295 135.081 194.562 135.308 193.982 135.761 C 193.402 136.214 192.972 136.848 192.692 137.661 C 192.412 138.474 192.272 139.428 192.272 140.521 L 192.272 140.801 C 192.272 141.901 192.412 142.861 192.692 143.681 C 192.979 144.508 193.415 145.148 194.002 145.601 C 194.582 146.061 195.312 146.291 196.192 146.291 Z" transform="matrix(1, 0, 0, 1, 0, 0)" style="fill: rgb(43, 107, 44); white-space: pre;"/>
  <path d="M 206.963 154.472 L 201.173 154.472 L 201.173 152.372 L 202.323 152.202 L 207.323 138.262 L 211.073 138.262 L 216.063 152.202 L 217.213 152.372 L 217.213 154.472 L 211.443 154.472 L 211.443 152.372 L 212.533 152.172 L 211.923 150.162 L 206.453 150.162 L 205.863 152.172 L 206.963 152.372 L 206.963 154.472 Z M 208.973 142.392 L 207.263 147.602 L 211.123 147.602 L 209.383 142.352 L 209.223 141.822 L 209.153 141.822 L 208.973 142.392 Z" transform="matrix(1, 0, 0, 1, 0, 0)" style="fill: rgb(232, 126, 27); white-space: pre;"/>
  <path d="M 232.075 136.932 L 232.075 149.502 C 232.075 149.822 232.112 150.082 232.185 150.282 C 232.265 150.475 232.378 150.629 232.525 150.742 C 232.678 150.855 232.868 150.932 233.095 150.972 C 233.322 151.012 233.585 151.032 233.885 151.032 C 234.378 151.032 234.822 150.982 235.215 150.882 C 235.608 150.782 235.952 150.669 236.245 150.542 C 236.545 150.422 236.795 150.309 236.995 150.202 C 237.202 150.102 237.362 150.052 237.475 150.052 C 237.615 150.052 237.725 150.095 237.805 150.182 C 237.885 150.275 237.925 150.405 237.925 150.572 C 237.925 150.872 237.895 151.085 237.835 151.212 C 237.775 151.345 237.655 151.445 237.475 151.512 C 236.795 151.745 236.032 151.922 235.185 152.042 C 234.345 152.155 233.388 152.212 232.315 152.212 C 231.522 152.212 230.872 152.175 230.365 152.102 C 229.865 152.035 229.468 151.912 229.175 151.732 C 228.888 151.552 228.692 151.309 228.585 151.002 C 228.478 150.695 228.425 150.299 228.425 149.812 L 228.425 137.172 C 228.425 137.005 228.405 136.875 228.365 136.782 C 228.325 136.682 228.272 136.605 228.205 136.552 C 228.138 136.499 228.058 136.462 227.965 136.442 C 227.878 136.422 227.778 136.412 227.665 136.412 C 227.498 136.412 227.295 136.439 227.055 136.492 C 226.815 136.545 226.562 136.622 226.295 136.722 C 226.028 136.829 225.758 136.959 225.485 137.112 C 225.218 137.259 224.978 137.429 224.765 137.622 C 224.552 137.815 224.378 138.032 224.245 138.272 C 224.112 138.512 224.045 138.769 224.045 139.042 C 224.045 139.275 224.075 139.465 224.135 139.612 C 224.202 139.752 224.275 139.855 224.355 139.922 C 224.435 139.995 224.518 140.042 224.605 140.062 C 224.692 140.075 224.755 140.082 224.795 140.082 C 224.975 140.082 225.125 140.052 225.245 139.992 C 225.365 139.932 225.475 139.865 225.575 139.792 C 225.668 139.719 225.758 139.652 225.845 139.592 C 225.932 139.525 226.028 139.492 226.135 139.492 C 226.228 139.492 226.325 139.515 226.425 139.562 C 226.525 139.602 226.618 139.665 226.705 139.752 C 226.785 139.839 226.855 139.955 226.915 140.102 C 226.975 140.249 227.005 140.425 227.005 140.632 C 227.005 140.932 226.948 141.189 226.835 141.402 C 226.722 141.615 226.572 141.795 226.385 141.942 C 226.205 142.089 225.998 142.195 225.765 142.262 C 225.532 142.335 225.298 142.372 225.065 142.372 C 224.712 142.372 224.392 142.309 224.105 142.182 C 223.818 142.062 223.575 141.895 223.375 141.682 C 223.175 141.462 223.025 141.209 222.925 140.922 C 222.818 140.635 222.765 140.329 222.765 140.002 C 222.765 139.489 222.858 139.019 223.045 138.592 C 223.232 138.165 223.485 137.779 223.805 137.432 C 224.132 137.092 224.512 136.795 224.945 136.542 C 225.378 136.282 225.845 136.069 226.345 135.902 C 226.852 135.729 227.382 135.599 227.935 135.512 C 228.482 135.432 229.028 135.392 229.575 135.392 C 230.188 135.392 230.662 135.449 230.995 135.562 C 231.335 135.675 231.585 135.815 231.745 135.982 C 231.905 136.142 231.998 136.312 232.025 136.492 C 232.058 136.672 232.075 136.819 232.075 136.932 Z" transform="matrix(1.241508960723877, 0, 0, 1, -63.19873809814453, -2.6176300048828125)" style="fill: rgb(228, 6, 6); white-space: pre;"/>
  <path d="M 229.097 138.425 C 224.719 148.724 217.931 150.071 211.561 152.398 C 209.25 153.242 199.064 152.489 197.812 141.248 C 197.462 138.107 191.28 141.732 182.977 145.388 C 177.723 147.701 176.639 133.912 174.413 133.912" style="fill: none; stroke: rgb(248, 251, 247);"/>
</svg>